  0
SECTION
  2
HEADER
  9
$ANGBASE
  50
0.0
  9
$ANGDIR
  70
1
  9
$MEASUREMENT
  70
1
  0
ENDSEC
  0
SECTION
  2
TABLES
  0
TABLE
  2
LTYPE
  70
4
  0
LTYPE
  5
40F
  2
CONTINUOUS
  70
0
  3
Solid line
  72
65
  73
0
  40
0.0
  0
LTYPE
  5
410
  2
DASHDOT
 70
0
  3
Dash Dot ____ _ ____ _
 72
65
 73
4
 40
2.0
 49
1.25
 49
-0.25
 49
0.25
 49
-0.25
  0
LTYPE
  5
411
  2
DASHED
 70
0
  3
Dashed __ __ __ __ __
 72
65
 73
2
 40
0.75
 49
0.5
 49
-0.25
  0
LTYPE
  5
43B
  2
DOTTED
 70
0
  3
Dotted .  .  .  .
 72
65
 73
2
 40
0.2
 49
0.0
 49
-0.2
  0
ENDTAB
  0
TABLE
  2
STYLE
  70
4
  0
STYLE
  2
KICAD
  70
0
  40
0
  41
1
  42
1
  50
0
  71
0
  3
isocp.shx
  0
STYLE
  2
KICADB
  70
0
  40
0
  41
1
  42
1
  50
0
  71
0
  3
isocp.shx
  0
STYLE
  2
KICADI
  70
0
  40
0
  41
1
  42
1
  50
15
  71
0
  3
isocp.shx
  0
STYLE
  2
KICADBI
  70
0
  40
0
  41
1
  42
1
  50
15
  71
0
  3
isocp.shx
  0
ENDTAB
  0
TABLE
  2
LAYER
  70
1
  0
LAYER
  2
BLACK
  70
0
  62
7
  6
CONTINUOUS
  0
ENDTAB
  0
ENDSEC
  0
SECTION
  2
ENTITIES
0
LINE
8
BLACK
6
CONTINUOUS
10
72.7360599999999948
20
-136.7194020000000023
11
72.9774259999999941
21
-136.7938529999999844
0
LINE
8
BLACK
6
CONTINUOUS
10
72.9774259999999941
20
-136.7938529999999844
11
73.2049999999999983
21
-136.9034469999999999
0
LINE
8
BLACK
6
CONTINUOUS
10
73.2049999999999983
20
-136.9034469999999999
11
73.4136979999999966
21
-137.0457350000000076
0
LINE
8
BLACK
6
CONTINUOUS
10
73.4136979999999966
20
-137.0457350000000076
11
73.5988579999999928
21
-137.2175379999999905
0
LINE
8
BLACK
6
CONTINUOUS
10
73.5988579999999928
20
-137.2175379999999905
11
73.7563439999999986
21
-137.4150190000000009
0
LINE
8
BLACK
6
CONTINUOUS
10
73.7563439999999986
20
-137.4150190000000009
11
73.8826370000000026
21
-137.6337659999999801
0
LINE
8
BLACK
6
CONTINUOUS
10
73.8826370000000026
20
-137.6337659999999801
11
73.9749180000000024
21
-137.8688939999999832
0
LINE
8
BLACK
6
CONTINUOUS
10
73.9749180000000024
20
-137.8688939999999832
11
74.0311239999999913
21
-138.1151490000000024
0
LINE
8
BLACK
6
CONTINUOUS
10
74.0311239999999913
20
-138.1151490000000024
11
74.0499999999999972
21
-138.3670299999999997
0
LINE
8
BLACK
6
CONTINUOUS
10
74.0499999999999972
20
-138.3670299999999997
11
74.0311239999999913
21
-138.6189109999999971
0
LINE
8
BLACK
6
CONTINUOUS
10
74.0311239999999913
20
-138.6189109999999971
11
73.9749180000000024
21
-138.8651659999999879
0
LINE
8
BLACK
6
CONTINUOUS
10
73.9749180000000024
20
-138.8651659999999879
11
73.8826370000000026
21
-139.100293999999991
0
LINE
8
BLACK
6
CONTINUOUS
10
73.8826370000000026
20
-139.100293999999991
11
73.7563439999999986
21
-139.3190409999999986
0
LINE
8
BLACK
6
CONTINUOUS
10
73.7563439999999986
20
-139.3190409999999986
11
73.5988579999999928
21
-139.5165219999999806
0
LINE
8
BLACK
6
CONTINUOUS
10
73.5988579999999928
20
-139.5165219999999806
11
73.4136979999999966
21
-139.6883249999999919
0
LINE
8
BLACK
6
CONTINUOUS
10
73.4136979999999966
20
-139.6883249999999919
11
73.2049999999999983
21
-139.8306129999999996
0
LINE
8
BLACK
6
CONTINUOUS
10
73.2049999999999983
20
-139.8306129999999996
11
72.9774259999999941
21
-139.9402069999999867
0
LINE
8
BLACK
6
CONTINUOUS
10
72.9774259999999941
20
-139.9402069999999867
11
72.7360599999999948
21
-140.0146579999999972
0
LINE
8
BLACK
6
CONTINUOUS
10
72.7360599999999948
20
-140.0146579999999972
11
72.4862940000000009
21
-140.0523039999999924
0
LINE
8
BLACK
6
CONTINUOUS
10
72.4862940000000009
20
-140.0523039999999924
11
72.233705999999998
21
-140.0523039999999924
0
LINE
8
BLACK
6
CONTINUOUS
10
72.233705999999998
20
-140.0523039999999924
11
71.9839399999999898
21
-140.0146579999999972
0
LINE
8
BLACK
6
CONTINUOUS
10
71.9839399999999898
20
-140.0146579999999972
11
71.7425739999999905
21
-139.9402069999999867
0
LINE
8
BLACK
6
CONTINUOUS
10
71.7425739999999905
20
-139.9402069999999867
11
71.5150000000000006
21
-139.8306129999999996
0
LINE
8
BLACK
6
CONTINUOUS
10
71.5150000000000006
20
-139.8306129999999996
11
71.3063020000000023
21
-139.6883249999999919
0
LINE
8
BLACK
6
CONTINUOUS
10
71.3063020000000023
20
-139.6883249999999919
11
71.1211419999999919
21
-139.5165219999999806
0
LINE
8
BLACK
6
CONTINUOUS
10
71.1211419999999919
20
-139.5165219999999806
11
70.9636560000000003
21
-139.3190409999999986
0
LINE
8
BLACK
6
CONTINUOUS
10
70.9636560000000003
20
-139.3190409999999986
11
70.8373629999999963
21
-139.100293999999991
0
LINE
8
BLACK
6
CONTINUOUS
10
70.8373629999999963
20
-139.100293999999991
11
70.7450819999999965
21
-138.8651659999999879
0
LINE
8
BLACK
6
CONTINUOUS
10
70.7450819999999965
20
-138.8651659999999879
11
70.6888759999999934
21
-138.6189109999999971
0
LINE
8
BLACK
6
CONTINUOUS
10
70.6888759999999934
20
-138.6189109999999971
11
70.6700000000000017
21
-138.3670299999999997
0
LINE
8
BLACK
6
CONTINUOUS
10
70.6700000000000017
20
-138.3670299999999997
11
70.6888759999999934
21
-138.1151490000000024
0
LINE
8
BLACK
6
CONTINUOUS
10
70.6888759999999934
20
-138.1151490000000024
11
70.7450819999999965
21
-137.8688939999999832
0
LINE
8
BLACK
6
CONTINUOUS
10
70.7450819999999965
20
-137.8688939999999832
11
70.8373629999999963
21
-137.6337659999999801
0
LINE
8
BLACK
6
CONTINUOUS
10
70.8373629999999963
20
-137.6337659999999801
11
70.9636560000000003
21
-137.4150190000000009
0
LINE
8
BLACK
6
CONTINUOUS
10
70.9636560000000003
20
-137.4150190000000009
11
71.1211419999999919
21
-137.2175379999999905
0
LINE
8
BLACK
6
CONTINUOUS
10
71.1211419999999919
20
-137.2175379999999905
11
71.3063020000000023
21
-137.0457350000000076
0
LINE
8
BLACK
6
CONTINUOUS
10
71.3063020000000023
20
-137.0457350000000076
11
71.5150000000000006
21
-136.9034469999999999
0
LINE
8
BLACK
6
CONTINUOUS
10
71.5150000000000006
20
-136.9034469999999999
11
71.7425739999999905
21
-136.7938529999999844
0
LINE
8
BLACK
6
CONTINUOUS
10
71.7425739999999905
20
-136.7938529999999844
11
71.9839399999999898
21
-136.7194020000000023
0
LINE
8
BLACK
6
CONTINUOUS
10
71.9839399999999898
20
-136.7194020000000023
11
72.233705999999998
21
-136.6817560000000071
0
LINE
8
BLACK
6
CONTINUOUS
10
72.233705999999998
20
-136.6817560000000071
11
72.4862940000000009
21
-136.6817560000000071
0
LINE
8
BLACK
6
CONTINUOUS
10
72.4862940000000009
20
-136.6817560000000071
11
72.7360599999999948
21
-136.7194020000000023
0
LINE
8
BLACK
6
CONTINUOUS
10
70.8639790000000005
20
-138.6039759999999887
11
70.9194639999999907
21
-138.8350879999999847
0
LINE
8
BLACK
6
CONTINUOUS
10
70.9194639999999907
20
-138.8350879999999847
11
71.0104199999999963
21
-139.0546750000000031
0
LINE
8
BLACK
6
CONTINUOUS
10
71.0104199999999963
20
-139.0546750000000031
11
71.1346070000000026
21
-139.2573299999999961
0
LINE
8
BLACK
6
CONTINUOUS
10
71.1346070000000026
20
-139.2573299999999961
11
71.2889669999999995
21
-139.4380629999999996
0
LINE
8
BLACK
6
CONTINUOUS
10
71.2889669999999995
20
-139.4380629999999996
11
71.4697000000000031
21
-139.5924229999999966
0
LINE
8
BLACK
6
CONTINUOUS
10
71.4697000000000031
20
-139.5924229999999966
11
71.672354999999996
21
-139.7166100000000029
0
LINE
8
BLACK
6
CONTINUOUS
10
71.672354999999996
20
-139.7166100000000029
11
71.8919420000000002
21
-139.80756599999998
0
LINE
8
BLACK
6
CONTINUOUS
10
71.8919420000000002
20
-139.80756599999998
11
72.1230539999999962
21
-139.8630509999999845
0
LINE
8
BLACK
6
CONTINUOUS
10
72.1230539999999962
20
-139.8630509999999845
11
72.3599999999999994
21
-139.8816989999999976
0
LINE
8
BLACK
6
CONTINUOUS
10
72.3599999999999994
20
-139.8816989999999976
11
72.5969460000000026
21
-139.8630509999999845
0
LINE
8
BLACK
6
CONTINUOUS
10
72.5969460000000026
20
-139.8630509999999845
11
72.8280579999999986
21
-139.80756599999998
0
LINE
8
BLACK
6
CONTINUOUS
10
72.8280579999999986
20
-139.80756599999998
11
73.0476450000000028
21
-139.7166100000000029
0
LINE
8
BLACK
6
CONTINUOUS
10
73.0476450000000028
20
-139.7166100000000029
11
73.2502999999999957
21
-139.5924229999999966
0
LINE
8
BLACK
6
CONTINUOUS
10
73.2502999999999957
20
-139.5924229999999966
11
73.4310329999999993
21
-139.4380629999999996
0
LINE
8
BLACK
6
CONTINUOUS
10
73.4310329999999993
20
-139.4380629999999996
11
73.5853929999999963
21
-139.2573299999999961
0
LINE
8
BLACK
6
CONTINUOUS
10
73.5853929999999963
20
-139.2573299999999961
11
73.7095800000000025
21
-139.0546750000000031
0
LINE
8
BLACK
6
CONTINUOUS
10
73.7095800000000025
20
-139.0546750000000031
11
73.8005359999999939
21
-138.8350879999999847
0
LINE
8
BLACK
6
CONTINUOUS
10
73.8005359999999939
20
-138.8350879999999847
11
73.8560209999999984
21
-138.6039759999999887
0
LINE
8
BLACK
6
CONTINUOUS
10
73.8560209999999984
20
-138.6039759999999887
11
73.8746689999999973
21
-138.3670299999999997
0
LINE
8
BLACK
6
CONTINUOUS
10
73.8746689999999973
20
-138.3670299999999997
11
73.8560209999999984
21
-138.1300839999999823
0
LINE
8
BLACK
6
CONTINUOUS
10
73.8560209999999984
20
-138.1300839999999823
11
73.8005359999999939
21
-137.8989719999999863
0
LINE
8
BLACK
6
CONTINUOUS
10
73.8005359999999939
20
-137.8989719999999863
11
73.7095800000000025
21
-137.6793849999999964
0
LINE
8
BLACK
6
CONTINUOUS
10
73.7095800000000025
20
-137.6793849999999964
11
73.5853929999999963
21
-137.4767300000000034
0
LINE
8
BLACK
6
CONTINUOUS
10
73.5853929999999963
20
-137.4767300000000034
11
73.4310329999999993
21
-137.2959969999999998
0
LINE
8
BLACK
6
CONTINUOUS
10
73.4310329999999993
20
-137.2959969999999998
11
73.2502999999999957
21
-137.1416370000000029
0
LINE
8
BLACK
6
CONTINUOUS
10
73.2502999999999957
20
-137.1416370000000029
11
73.0476450000000028
21
-137.0174499999999966
0
LINE
8
BLACK
6
CONTINUOUS
10
73.0476450000000028
20
-137.0174499999999966
11
72.8280579999999986
21
-136.926493999999991
0
LINE
8
BLACK
6
CONTINUOUS
10
72.8280579999999986
20
-136.926493999999991
11
72.5969460000000026
21
-136.8710089999999866
0
LINE
8
BLACK
6
CONTINUOUS
10
72.5969460000000026
20
-136.8710089999999866
11
72.3599999999999994
21
-136.8523610000000019
0
LINE
8
BLACK
6
CONTINUOUS
10
72.3599999999999994
20
-136.8523610000000019
11
72.1230539999999962
21
-136.8710089999999866
0
LINE
8
BLACK
6
CONTINUOUS
10
72.1230539999999962
20
-136.8710089999999866
11
71.8919420000000002
21
-136.926493999999991
0
LINE
8
BLACK
6
CONTINUOUS
10
71.8919420000000002
20
-136.926493999999991
11
71.672354999999996
21
-137.0174499999999966
0
LINE
8
BLACK
6
CONTINUOUS
10
71.672354999999996
20
-137.0174499999999966
11
71.4697000000000031
21
-137.1416370000000029
0
LINE
8
BLACK
6
CONTINUOUS
10
71.4697000000000031
20
-137.1416370000000029
11
71.2889669999999995
21
-137.2959969999999998
0
LINE
8
BLACK
6
CONTINUOUS
10
71.2889669999999995
20
-137.2959969999999998
11
71.1346070000000026
21
-137.4767300000000034
0
LINE
8
BLACK
6
CONTINUOUS
10
71.1346070000000026
20
-137.4767300000000034
11
71.0104199999999963
21
-137.6793849999999964
0
LINE
8
BLACK
6
CONTINUOUS
10
71.0104199999999963
20
-137.6793849999999964
11
70.9194639999999907
21
-137.8989719999999863
0
LINE
8
BLACK
6
CONTINUOUS
10
70.9194639999999907
20
-137.8989719999999863
11
70.8639790000000005
21
-138.1300839999999823
0
LINE
8
BLACK
6
CONTINUOUS
10
70.8639790000000005
20
-138.1300839999999823
11
70.8453310000000016
21
-138.3670299999999997
0
LINE
8
BLACK
6
CONTINUOUS
10
70.8453310000000016
20
-138.3670299999999997
11
70.8639790000000005
21
-138.6039759999999887
0
LINE
8
BLACK
6
CONTINUOUS
10
136.9660599999999988
20
-136.6903419999999869
11
137.2074259999999981
21
-136.7647929999999974
0
LINE
8
BLACK
6
CONTINUOUS
10
137.2074259999999981
20
-136.7647929999999974
11
137.4350000000000023
21
-136.8743869999999845
0
LINE
8
BLACK
6
CONTINUOUS
10
137.4350000000000023
20
-136.8743869999999845
11
137.6436980000000005
21
-137.0166749999999922
0
LINE
8
BLACK
6
CONTINUOUS
10
137.6436980000000005
20
-137.0166749999999922
11
137.8288579999999968
21
-137.1884780000000035
0
LINE
8
BLACK
6
CONTINUOUS
10
137.8288579999999968
20
-137.1884780000000035
11
137.9863440000000026
21
-137.3859589999999855
0
LINE
8
BLACK
6
CONTINUOUS
10
137.9863440000000026
20
-137.3859589999999855
11
138.1126370000000065
21
-137.6047059999999931
0
LINE
8
BLACK
6
CONTINUOUS
10
138.1126370000000065
20
-137.6047059999999931
11
138.2049179999999922
21
-137.8398339999999962
0
LINE
8
BLACK
6
CONTINUOUS
10
138.2049179999999922
20
-137.8398339999999962
11
138.2611239999999952
21
-138.086088999999987
0
LINE
8
BLACK
6
CONTINUOUS
10
138.2611239999999952
20
-138.086088999999987
11
138.2800000000000011
21
-138.3379699999999843
0
LINE
8
BLACK
6
CONTINUOUS
10
138.2800000000000011
20
-138.3379699999999843
11
138.2611239999999952
21
-138.5898509999999817
0
LINE
8
BLACK
6
CONTINUOUS
10
138.2611239999999952
20
-138.5898509999999817
11
138.2049179999999922
21
-138.8361060000000009
0
LINE
8
BLACK
6
CONTINUOUS
10
138.2049179999999922
20
-138.8361060000000009
11
138.1126370000000065
21
-139.071234000000004
0
LINE
8
BLACK
6
CONTINUOUS
10
138.1126370000000065
20
-139.071234000000004
11
137.9863440000000026
21
-139.2899809999999832
0
LINE
8
BLACK
6
CONTINUOUS
10
137.9863440000000026
20
-139.2899809999999832
11
137.8288579999999968
21
-139.4874619999999936
0
LINE
8
BLACK
6
CONTINUOUS
10
137.8288579999999968
20
-139.4874619999999936
11
137.6436980000000005
21
-139.6592650000000049
0
LINE
8
BLACK
6
CONTINUOUS
10
137.6436980000000005
20
-139.6592650000000049
11
137.4350000000000023
21
-139.8015529999999842
0
LINE
8
BLACK
6
CONTINUOUS
10
137.4350000000000023
20
-139.8015529999999842
11
137.2074259999999981
21
-139.9111469999999997
0
LINE
8
BLACK
6
CONTINUOUS
10
137.2074259999999981
20
-139.9111469999999997
11
136.9660599999999988
21
-139.9855979999999818
0
LINE
8
BLACK
6
CONTINUOUS
10
136.9660599999999988
20
-139.9855979999999818
11
136.7162940000000049
21
-140.0232440000000054
0
LINE
8
BLACK
6
CONTINUOUS
10
136.7162940000000049
20
-140.0232440000000054
11
136.4637060000000019
21
-140.0232440000000054
0
LINE
8
BLACK
6
CONTINUOUS
10
136.4637060000000019
20
-140.0232440000000054
11
136.213940000000008
21
-139.9855979999999818
0
LINE
8
BLACK
6
CONTINUOUS
10
136.213940000000008
20
-139.9855979999999818
11
135.9725739999999803
21
-139.9111469999999997
0
LINE
8
BLACK
6
CONTINUOUS
10
135.9725739999999803
20
-139.9111469999999997
11
135.7450000000000045
21
-139.8015529999999842
0
LINE
8
BLACK
6
CONTINUOUS
10
135.7450000000000045
20
-139.8015529999999842
11
135.5363020000000063
21
-139.6592650000000049
0
LINE
8
BLACK
6
CONTINUOUS
10
135.5363020000000063
20
-139.6592650000000049
11
135.3511419999999816
21
-139.4874619999999936
0
LINE
8
BLACK
6
CONTINUOUS
10
135.3511419999999816
20
-139.4874619999999936
11
135.1936560000000043
21
-139.2899809999999832
0
LINE
8
BLACK
6
CONTINUOUS
10
135.1936560000000043
20
-139.2899809999999832
11
135.0673630000000003
21
-139.071234000000004
0
LINE
8
BLACK
6
CONTINUOUS
10
135.0673630000000003
20
-139.071234000000004
11
134.9750819999999862
21
-138.8361060000000009
0
LINE
8
BLACK
6
CONTINUOUS
10
134.9750819999999862
20
-138.8361060000000009
11
134.9188759999999832
21
-138.5898509999999817
0
LINE
8
BLACK
6
CONTINUOUS
10
134.9188759999999832
20
-138.5898509999999817
11
134.9000000000000057
21
-138.3379699999999843
0
LINE
8
BLACK
6
CONTINUOUS
10
134.9000000000000057
20
-138.3379699999999843
11
134.9188759999999832
21
-138.086088999999987
0
LINE
8
BLACK
6
CONTINUOUS
10
134.9188759999999832
20
-138.086088999999987
11
134.9750819999999862
21
-137.8398339999999962
0
LINE
8
BLACK
6
CONTINUOUS
10
134.9750819999999862
20
-137.8398339999999962
11
135.0673630000000003
21
-137.6047059999999931
0
LINE
8
BLACK
6
CONTINUOUS
10
135.0673630000000003
20
-137.6047059999999931
11
135.1936560000000043
21
-137.3859589999999855
0
LINE
8
BLACK
6
CONTINUOUS
10
135.1936560000000043
20
-137.3859589999999855
11
135.3511419999999816
21
-137.1884780000000035
0
LINE
8
BLACK
6
CONTINUOUS
10
135.3511419999999816
20
-137.1884780000000035
11
135.5363020000000063
21
-137.0166749999999922
0
LINE
8
BLACK
6
CONTINUOUS
10
135.5363020000000063
20
-137.0166749999999922
11
135.7450000000000045
21
-136.8743869999999845
0
LINE
8
BLACK
6
CONTINUOUS
10
135.7450000000000045
20
-136.8743869999999845
11
135.9725739999999803
21
-136.7647929999999974
0
LINE
8
BLACK
6
CONTINUOUS
10
135.9725739999999803
20
-136.7647929999999974
11
136.213940000000008
21
-136.6903419999999869
0
LINE
8
BLACK
6
CONTINUOUS
10
136.213940000000008
20
-136.6903419999999869
11
136.4637060000000019
21
-136.6526959999999917
0
LINE
8
BLACK
6
CONTINUOUS
10
136.4637060000000019
20
-136.6526959999999917
11
136.7162940000000049
21
-136.6526959999999917
0
LINE
8
BLACK
6
CONTINUOUS
10
136.7162940000000049
20
-136.6526959999999917
11
136.9660599999999988
21
-136.6903419999999869
0
LINE
8
BLACK
6
CONTINUOUS
10
135.0939789999999903
20
-138.5749160000000018
11
135.1494639999999947
21
-138.8060279999999977
0
LINE
8
BLACK
6
CONTINUOUS
10
135.1494639999999947
20
-138.8060279999999977
11
135.2404200000000003
21
-139.0256149999999877
0
LINE
8
BLACK
6
CONTINUOUS
10
135.2404200000000003
20
-139.0256149999999877
11
135.3646070000000066
21
-139.2282699999999807
0
LINE
8
BLACK
6
CONTINUOUS
10
135.3646070000000066
20
-139.2282699999999807
11
135.5189670000000035
21
-139.4090029999999842
0
LINE
8
BLACK
6
CONTINUOUS
10
135.5189670000000035
20
-139.4090029999999842
11
135.6997000000000071
21
-139.5633629999999812
0
LINE
8
BLACK
6
CONTINUOUS
10
135.6997000000000071
20
-139.5633629999999812
11
135.902355
21
-139.6875499999999874
0
LINE
8
BLACK
6
CONTINUOUS
10
135.902355
20
-139.6875499999999874
11
136.12194199999999
21
-139.778505999999993
0
LINE
8
BLACK
6
CONTINUOUS
10
136.12194199999999
20
-139.778505999999993
11
136.353053999999986
21
-139.8339909999999975
0
LINE
8
BLACK
6
CONTINUOUS
10
136.353053999999986
20
-139.8339909999999975
11
136.5900000000000034
21
-139.8526389999999822
0
LINE
8
BLACK
6
CONTINUOUS
10
136.5900000000000034
20
-139.8526389999999822
11
136.8269459999999924
21
-139.8339909999999975
0
LINE
8
BLACK
6
CONTINUOUS
10
136.8269459999999924
20
-139.8339909999999975
11
137.0580579999999884
21
-139.778505999999993
0
LINE
8
BLACK
6
CONTINUOUS
10
137.0580579999999884
20
-139.778505999999993
11
137.2776450000000068
21
-139.6875499999999874
0
LINE
8
BLACK
6
CONTINUOUS
10
137.2776450000000068
20
-139.6875499999999874
11
137.4802999999999997
21
-139.5633629999999812
0
LINE
8
BLACK
6
CONTINUOUS
10
137.4802999999999997
20
-139.5633629999999812
11
137.6610330000000033
21
-139.4090029999999842
0
LINE
8
BLACK
6
CONTINUOUS
10
137.6610330000000033
20
-139.4090029999999842
11
137.8153930000000003
21
-139.2282699999999807
0
LINE
8
BLACK
6
CONTINUOUS
10
137.8153930000000003
20
-139.2282699999999807
11
137.9395800000000065
21
-139.0256149999999877
0
LINE
8
BLACK
6
CONTINUOUS
10
137.9395800000000065
20
-139.0256149999999877
11
138.0305359999999837
21
-138.8060279999999977
0
LINE
8
BLACK
6
CONTINUOUS
10
138.0305359999999837
20
-138.8060279999999977
11
138.0860209999999881
21
-138.5749160000000018
0
LINE
8
BLACK
6
CONTINUOUS
10
138.0860209999999881
20
-138.5749160000000018
11
138.1046690000000012
21
-138.3379699999999843
0
LINE
8
BLACK
6
CONTINUOUS
10
138.1046690000000012
20
-138.3379699999999843
11
138.0860209999999881
21
-138.1010239999999953
0
LINE
8
BLACK
6
CONTINUOUS
10
138.0860209999999881
20
-138.1010239999999953
11
138.0305359999999837
21
-137.8699119999999994
0
LINE
8
BLACK
6
CONTINUOUS
10
138.0305359999999837
20
-137.8699119999999994
11
137.9395800000000065
21
-137.6503249999999809
0
LINE
8
BLACK
6
CONTINUOUS
10
137.9395800000000065
20
-137.6503249999999809
11
137.8153930000000003
21
-137.447669999999988
0
LINE
8
BLACK
6
CONTINUOUS
10
137.8153930000000003
20
-137.447669999999988
11
137.6610330000000033
21
-137.2669369999999844
0
LINE
8
BLACK
6
CONTINUOUS
10
137.6610330000000033
20
-137.2669369999999844
11
137.4802999999999997
21
-137.1125769999999875
0
LINE
8
BLACK
6
CONTINUOUS
10
137.4802999999999997
20
-137.1125769999999875
11
137.2776450000000068
21
-136.9883899999999812
0
LINE
8
BLACK
6
CONTINUOUS
10
137.2776450000000068
20
-136.9883899999999812
11
137.0580579999999884
21
-136.8974340000000041
0
LINE
8
BLACK
6
CONTINUOUS
10
137.0580579999999884
20
-136.8974340000000041
11
136.8269459999999924
21
-136.8419489999999996
0
LINE
8
BLACK
6
CONTINUOUS
10
136.8269459999999924
20
-136.8419489999999996
11
136.5900000000000034
21
-136.8233009999999865
0
LINE
8
BLACK
6
CONTINUOUS
10
136.5900000000000034
20
-136.8233009999999865
11
136.353053999999986
21
-136.8419489999999996
0
LINE
8
BLACK
6
CONTINUOUS
10
136.353053999999986
20
-136.8419489999999996
11
136.12194199999999
21
-136.8974340000000041
0
LINE
8
BLACK
6
CONTINUOUS
10
136.12194199999999
20
-136.8974340000000041
11
135.902355
21
-136.9883899999999812
0
LINE
8
BLACK
6
CONTINUOUS
10
135.902355
20
-136.9883899999999812
11
135.6997000000000071
21
-137.1125769999999875
0
LINE
8
BLACK
6
CONTINUOUS
10
135.6997000000000071
20
-137.1125769999999875
11
135.5189670000000035
21
-137.2669369999999844
0
LINE
8
BLACK
6
CONTINUOUS
10
135.5189670000000035
20
-137.2669369999999844
11
135.3646070000000066
21
-137.447669999999988
0
LINE
8
BLACK
6
CONTINUOUS
10
135.3646070000000066
20
-137.447669999999988
11
135.2404200000000003
21
-137.6503249999999809
0
LINE
8
BLACK
6
CONTINUOUS
10
135.2404200000000003
20
-137.6503249999999809
11
135.1494639999999947
21
-137.8699119999999994
0
LINE
8
BLACK
6
CONTINUOUS
10
135.1494639999999947
20
-137.8699119999999994
11
135.0939789999999903
21
-138.1010239999999953
0
LINE
8
BLACK
6
CONTINUOUS
10
135.0939789999999903
20
-138.1010239999999953
11
135.0753310000000056
21
-138.3379699999999843
0
LINE
8
BLACK
6
CONTINUOUS
10
135.0753310000000056
20
-138.3379699999999843
11
135.0939789999999903
21
-138.5749160000000018
0
LINE
8
BLACK
6
CONTINUOUS
10
114.504887999999994
20
-108.3949209999999965
11
114.5409359999999879
21
-108.4098529999999982
0
LINE
8
BLACK
6
CONTINUOUS
10
114.5409359999999879
20
-108.4098529999999982
11
114.5685259999999914
21
-108.4374430000000018
0
LINE
8
BLACK
6
CONTINUOUS
10
114.5685259999999914
20
-108.4374430000000018
11
114.5834579999999931
21
-108.4734909999999957
0
LINE
8
BLACK
6
CONTINUOUS
10
114.5834579999999931
20
-108.4734909999999957
11
114.5853010000000012
21
-110.7990470000000016
0
LINE
8
BLACK
6
CONTINUOUS
10
114.5853010000000012
20
-110.7990470000000016
11
116.2384819999999905
21
-110.7972559999999902
0
LINE
8
BLACK
6
CONTINUOUS
10
116.2384819999999905
20
-110.7972559999999902
11
116.2579909999999899
21
-110.7991770000000002
0
LINE
8
BLACK
6
CONTINUOUS
10
116.2579909999999899
20
-110.7991770000000002
11
116.2940389999999979
21
-110.814109000000002
0
LINE
8
BLACK
6
CONTINUOUS
10
116.2940389999999979
20
-110.814109000000002
11
116.3216290000000015
21
-110.8416989999999913
0
LINE
8
BLACK
6
CONTINUOUS
10
116.3216290000000015
20
-110.8416989999999913
11
116.336560999999989
21
-110.8777469999999994
0
LINE
8
BLACK
6
CONTINUOUS
10
116.336560999999989
20
-110.8777469999999994
11
116.338364999999996
21
-112.4019599999999883
0
LINE
8
BLACK
6
CONTINUOUS
10
116.338364999999996
20
-112.4019599999999883
11
120.4219879999999989
21
-112.4000939999999957
0
LINE
8
BLACK
6
CONTINUOUS
10
120.4219879999999989
20
-112.4000939999999957
11
120.4414969999999983
21
-112.4020149999999916
0
LINE
8
BLACK
6
CONTINUOUS
10
120.4414969999999983
20
-112.4020149999999916
11
120.4775449999999921
21
-112.4169469999999933
0
LINE
8
BLACK
6
CONTINUOUS
10
120.4775449999999921
20
-112.4169469999999933
11
120.5051349999999957
21
-112.4445369999999969
0
LINE
8
BLACK
6
CONTINUOUS
10
120.5051349999999957
20
-112.4445369999999969
11
120.5200669999999974
21
-112.4805849999999907
0
LINE
8
BLACK
6
CONTINUOUS
10
120.5200669999999974
20
-112.4805849999999907
11
120.5219879999999932
21
-135.25
0
LINE
8
BLACK
6
CONTINUOUS
10
120.5219879999999932
20
-135.25
11
120.5200669999999974
21
-135.2695089999999993
0
LINE
8
BLACK
6
CONTINUOUS
10
120.5200669999999974
20
-135.2695089999999993
11
120.5051349999999957
21
-135.3055569999999932
0
LINE
8
BLACK
6
CONTINUOUS
10
120.5051349999999957
20
-135.3055569999999932
11
120.4775449999999921
21
-135.3331469999999968
0
LINE
8
BLACK
6
CONTINUOUS
10
120.4775449999999921
20
-135.3331469999999968
11
120.4414969999999983
21
-135.3480789999999843
0
LINE
8
BLACK
6
CONTINUOUS
10
120.4414969999999983
20
-135.3480789999999843
11
116.5981489999999923
21
-135.3499520000000018
0
LINE
8
BLACK
6
CONTINUOUS
10
116.5981489999999923
20
-135.3499520000000018
11
116.5999999999999943
21
-138.5
0
LINE
8
BLACK
6
CONTINUOUS
10
116.5999999999999943
20
-138.5
11
116.5980789999999985
21
-138.5195089999999993
0
LINE
8
BLACK
6
CONTINUOUS
10
116.5980789999999985
20
-138.5195089999999993
11
116.5831469999999968
21
-138.5555569999999932
0
LINE
8
BLACK
6
CONTINUOUS
10
116.5831469999999968
20
-138.5555569999999932
11
116.5555569999999932
21
-138.5831469999999968
0
LINE
8
BLACK
6
CONTINUOUS
10
116.5555569999999932
20
-138.5831469999999968
11
116.5195089999999993
21
-138.5980789999999843
0
LINE
8
BLACK
6
CONTINUOUS
10
116.5195089999999993
20
-138.5980789999999843
11
92.75
21
-138.5999999999999943
0
LINE
8
BLACK
6
CONTINUOUS
10
92.75
20
-138.5999999999999943
11
92.7304910000000007
21
-138.5980789999999843
0
LINE
8
BLACK
6
CONTINUOUS
10
92.7304910000000007
20
-138.5980789999999843
11
92.6944429999999926
21
-138.5831469999999968
0
LINE
8
BLACK
6
CONTINUOUS
10
92.6944429999999926
20
-138.5831469999999968
11
92.666852999999989
21
-138.5555569999999932
0
LINE
8
BLACK
6
CONTINUOUS
10
92.666852999999989
20
-138.5555569999999932
11
92.6519210000000015
21
-138.5195089999999993
0
LINE
8
BLACK
6
CONTINUOUS
10
92.6519210000000015
20
-138.5195089999999993
11
92.6500569999999897
21
-135.34813299999999
0
LINE
8
BLACK
6
CONTINUOUS
10
92.6500569999999897
20
-135.34813299999999
11
88.5390060000000005
21
-135.3499999999999943
0
LINE
8
BLACK
6
CONTINUOUS
10
88.5390060000000005
20
-135.3499999999999943
11
88.5199779999999947
21
-135.3481260000000077
0
LINE
8
BLACK
6
CONTINUOUS
10
88.5199779999999947
20
-135.3481260000000077
11
88.5197369999999921
21
-135.3481270000000052
0
LINE
8
BLACK
6
CONTINUOUS
10
88.5197369999999921
20
-135.3481270000000052
11
88.5196589999999901
21
-135.3480940000000032
0
LINE
8
BLACK
6
CONTINUOUS
10
88.5196589999999901
20
-135.3480940000000032
11
88.5194970000000012
21
-135.3480789999999843
0
LINE
8
BLACK
6
CONTINUOUS
10
88.5194970000000012
20
-135.3480789999999843
11
88.501780999999994
21
-135.3407399999999825
0
LINE
8
BLACK
6
CONTINUOUS
10
88.501780999999994
20
-135.3407399999999825
11
88.4836519999999922
21
-135.3332829999999944
0
LINE
8
BLACK
6
CONTINUOUS
10
88.4836519999999922
20
-135.3332829999999944
11
88.4835619999999921
21
-135.3331939999999918
0
LINE
8
BLACK
6
CONTINUOUS
10
88.4835619999999921
20
-135.3331939999999918
11
88.4834489999999931
21
-135.3331469999999968
0
LINE
8
BLACK
6
CONTINUOUS
10
88.4834489999999931
20
-135.3331469999999968
11
88.469822999999991
21
-135.3195209999999804
0
LINE
8
BLACK
6
CONTINUOUS
10
88.469822999999991
20
-135.3195209999999804
11
88.4559950000000015
21
-135.3057599999999923
0
LINE
8
BLACK
6
CONTINUOUS
10
88.4559950000000015
20
-135.3057599999999923
11
88.4559469999999948
21
-135.3056449999999984
0
LINE
8
BLACK
6
CONTINUOUS
10
88.4559469999999948
20
-135.3056449999999984
11
88.4558589999999896
21
-135.3055569999999932
0
LINE
8
BLACK
6
CONTINUOUS
10
88.4558589999999896
20
-135.3055569999999932
11
88.4484479999999991
21
-135.287666999999999
0
LINE
8
BLACK
6
CONTINUOUS
10
88.4484479999999991
20
-135.287666999999999
11
88.4409749999999946
21
-135.2697489999999902
0
LINE
8
BLACK
6
CONTINUOUS
10
88.4409749999999946
20
-135.2697489999999902
11
88.4409739999999971
21
-135.2696239999999932
0
LINE
8
BLACK
6
CONTINUOUS
10
88.4409739999999971
20
-135.2696239999999932
11
88.4409270000000021
21
-135.2695089999999993
0
LINE
8
BLACK
6
CONTINUOUS
10
88.4409270000000021
20
-135.2695089999999993
11
88.4409270000000021
21
-135.2520930000000021
0
LINE
8
BLACK
6
CONTINUOUS
10
88.4409270000000021
20
-135.2520930000000021
11
88.4219879999999989
21
-128.2860560000000021
0
LINE
8
BLACK
6
CONTINUOUS
10
88.4219879999999989
20
-128.2860560000000021
11
88.4238619999999997
21
-128.2665429999999844
0
LINE
8
BLACK
6
CONTINUOUS
10
88.4238619999999997
20
-128.2665429999999844
11
88.4238979999999941
21
-128.2664529999999843
0
LINE
8
BLACK
6
CONTINUOUS
10
88.4238979999999941
20
-128.2664529999999843
11
88.4219879999999989
21
-121.
0
LINE
8
BLACK
6
CONTINUOUS
10
88.4219879999999989
20
-121.
11
88.4237979999999908
21
-120.9816159999999883
0
LINE
8
BLACK
6
CONTINUOUS
10
88.4237979999999908
20
-120.9816159999999883
11
88.4237949999999984
21
-120.981072999999995
0
LINE
8
BLACK
6
CONTINUOUS
10
88.4237949999999984
20
-120.981072999999995
11
88.4238689999999963
21
-120.9808889999999906
0
LINE
8
BLACK
6
CONTINUOUS
10
88.4238689999999963
20
-120.9808889999999906
11
88.4239089999999948
21
-120.9804910000000007
0
LINE
8
BLACK
6
CONTINUOUS
10
88.4239089999999948
20
-120.9804910000000007
11
88.4312619999999896
21
-120.96273699999999
0
LINE
8
BLACK
6
CONTINUOUS
10
88.4312619999999896
20
-120.96273699999999
11
88.4385130000000004
21
-120.9449369999999959
0
LINE
8
BLACK
6
CONTINUOUS
10
88.4385130000000004
20
-120.9449369999999959
11
88.4387249999999909
21
-120.9447219999999987
0
LINE
8
BLACK
6
CONTINUOUS
10
88.4387249999999909
20
-120.9447219999999987
11
88.4388409999999965
21
-120.9444429999999926
0
LINE
8
BLACK
6
CONTINUOUS
10
88.4388409999999965
20
-120.9444429999999926
11
88.4524349999999941
21
-120.9308479999999975
0
LINE
8
BLACK
6
CONTINUOUS
10
88.4524349999999941
20
-120.9308479999999975
11
88.4659389999999917
21
-120.9171839999999918
0
LINE
8
BLACK
6
CONTINUOUS
10
88.4659389999999917
20
-120.9171839999999918
11
88.4662170000000003
21
-120.9170659999999913
0
LINE
8
BLACK
6
CONTINUOUS
10
88.4662170000000003
20
-120.9170659999999913
11
88.466431
21
-120.916852999999989
0
LINE
8
BLACK
6
CONTINUOUS
10
88.466431
20
-120.916852999999989
11
88.4841709999999892
21
-120.9095039999999983
0
LINE
8
BLACK
6
CONTINUOUS
10
88.4841709999999892
20
-120.9095039999999983
11
88.5018979999999971
21
-120.9020379999999903
0
LINE
8
BLACK
6
CONTINUOUS
10
88.5018979999999971
20
-120.9020379999999903
11
88.5022009999999995
21
-120.9020349999999979
0
LINE
8
BLACK
6
CONTINUOUS
10
88.5022009999999995
20
-120.9020349999999979
11
88.5024789999999939
21
-120.9019210000000015
0
LINE
8
BLACK
6
CONTINUOUS
10
88.5024789999999939
20
-120.9019210000000015
11
88.5193769999999915
21
-120.9019210000000015
0
LINE
8
BLACK
6
CONTINUOUS
10
88.5193769999999915
20
-120.9019210000000015
11
90.9149879999999939
21
-120.8858849999999876
0
LINE
8
BLACK
6
CONTINUOUS
10
90.9149879999999939
20
-120.8858849999999876
11
90.913094000000001
21
-112.50009399999999
0
LINE
8
BLACK
6
CONTINUOUS
10
90.913094000000001
20
-112.50009399999999
11
90.9150149999999968
21
-112.4805849999999907
0
LINE
8
BLACK
6
CONTINUOUS
10
90.9150149999999968
20
-112.4805849999999907
11
90.9299469999999985
21
-112.4445369999999969
0
LINE
8
BLACK
6
CONTINUOUS
10
90.9299469999999985
20
-112.4445369999999969
11
90.9575370000000021
21
-112.4169469999999933
0
LINE
8
BLACK
6
CONTINUOUS
10
90.9575370000000021
20
-112.4169469999999933
11
90.9935849999999959
21
-112.4020149999999916
0
LINE
8
BLACK
6
CONTINUOUS
10
90.9935849999999959
20
-112.4020149999999916
11
92.548497999999995
21
-112.4002079999999921
0
LINE
8
BLACK
6
CONTINUOUS
10
92.548497999999995
20
-112.4002079999999921
11
92.546718999999996
21
-110.8972559999999987
0
LINE
8
BLACK
6
CONTINUOUS
10
92.546718999999996
20
-110.8972559999999987
11
92.5486399999999918
21
-110.8777469999999994
0
LINE
8
BLACK
6
CONTINUOUS
10
92.5486399999999918
20
-110.8777469999999994
11
92.5635719999999935
21
-110.8416989999999913
0
LINE
8
BLACK
6
CONTINUOUS
10
92.5635719999999935
20
-110.8416989999999913
11
92.5911619999999971
21
-110.814109000000002
0
LINE
8
BLACK
6
CONTINUOUS
10
92.5911619999999971
20
-110.814109000000002
11
92.6272099999999909
21
-110.7991770000000002
0
LINE
8
BLACK
6
CONTINUOUS
10
92.6272099999999909
20
-110.7991770000000002
11
94.4018259999999998
21
-110.7973559999999935
0
LINE
8
BLACK
6
CONTINUOUS
10
94.4018259999999998
20
-110.7973559999999935
11
94.3999999999999915
21
-108.492999999999995
0
LINE
8
BLACK
6
CONTINUOUS
10
94.3999999999999915
20
-108.492999999999995
11
94.4019210000000015
21
-108.4734909999999957
0
LINE
8
BLACK
6
CONTINUOUS
10
94.4019210000000015
20
-108.4734909999999957
11
94.416852999999989
21
-108.4374430000000018
0
LINE
8
BLACK
6
CONTINUOUS
10
94.416852999999989
20
-108.4374430000000018
11
94.4444429999999926
21
-108.4098529999999982
0
LINE
8
BLACK
6
CONTINUOUS
10
94.4444429999999926
20
-108.4098529999999982
11
94.4804910000000007
21
-108.3949209999999965
0
LINE
8
BLACK
6
CONTINUOUS
10
94.4804910000000007
20
-108.3949209999999965
11
114.4853789999999947
21
-108.3930000000000007
0
LINE
8
BLACK
6
CONTINUOUS
10
114.4853789999999947
20
-108.3930000000000007
11
114.504887999999994
21
-108.3949209999999965
0
LINE
8
BLACK
6
CONTINUOUS
10
94.5981730000000027
20
-108.5929900000000004
11
94.5999999999999943
21
-110.8972559999999987
0
LINE
8
BLACK
6
CONTINUOUS
10
94.5999999999999943
20
-110.8972559999999987
11
94.5980789999999985
21
-110.9167649999999981
0
LINE
8
BLACK
6
CONTINUOUS
10
94.5980789999999985
20
-110.9167649999999981
11
94.5831469999999968
21
-110.9528129999999919
0
LINE
8
BLACK
6
CONTINUOUS
10
94.5831469999999968
20
-110.9528129999999919
11
94.5555569999999932
21
-110.9804029999999955
0
LINE
8
BLACK
6
CONTINUOUS
10
94.5555569999999932
20
-110.9804029999999955
11
94.5195089999999993
21
-110.9953349999999972
0
LINE
8
BLACK
6
CONTINUOUS
10
94.5195089999999993
20
-110.9953349999999972
11
92.7449390000000022
21
-110.9971549999999922
0
LINE
8
BLACK
6
CONTINUOUS
10
92.7449390000000022
20
-110.9971549999999922
11
92.7467189999999988
21
-112.50009399999999
0
LINE
8
BLACK
6
CONTINUOUS
10
92.7467189999999988
20
-112.50009399999999
11
92.7447979999999887
21
-112.5196029999999894
0
LINE
8
BLACK
6
CONTINUOUS
10
92.7447979999999887
20
-112.5196029999999894
11
92.7298660000000012
21
-112.5556509999999975
0
LINE
8
BLACK
6
CONTINUOUS
10
92.7298660000000012
20
-112.5556509999999975
11
92.7022759999999977
21
-112.583241000000001
0
LINE
8
BLACK
6
CONTINUOUS
10
92.7022759999999977
20
-112.583241000000001
11
92.6662279999999896
21
-112.5981729999999885
0
LINE
8
BLACK
6
CONTINUOUS
10
92.6662279999999896
20
-112.5981729999999885
11
91.1111989999999992
21
-112.5999789999999905
0
LINE
8
BLACK
6
CONTINUOUS
10
91.1111989999999992
20
-112.5999789999999905
11
91.1130939999999896
21
-120.9852309999999989
0
LINE
8
BLACK
6
CONTINUOUS
10
91.1130939999999896
20
-120.9852309999999989
11
91.1112830000000002
21
-121.0036139999999989
0
LINE
8
BLACK
6
CONTINUOUS
10
91.1112830000000002
20
-121.0036139999999989
11
91.1112869999999901
21
-121.0041579999999897
0
LINE
8
BLACK
6
CONTINUOUS
10
91.1112869999999901
20
-121.0041579999999897
11
91.1112119999999948
21
-121.0043409999999966
0
LINE
8
BLACK
6
CONTINUOUS
10
91.1112119999999948
20
-121.0043409999999966
11
91.1111729999999937
21
-121.0047399999999982
0
LINE
8
BLACK
6
CONTINUOUS
10
91.1111729999999937
20
-121.0047399999999982
11
91.1038190000000014
21
-121.0224929999999972
0
LINE
8
BLACK
6
CONTINUOUS
10
91.1038190000000014
20
-121.0224929999999972
11
91.0965690000000023
21
-121.0402939999999887
0
LINE
8
BLACK
6
CONTINUOUS
10
91.0965690000000023
20
-121.0402939999999887
11
91.0963560000000001
21
-121.0405079999999884
0
LINE
8
BLACK
6
CONTINUOUS
10
91.0963560000000001
20
-121.0405079999999884
11
91.096240999999992
21
-121.0407879999999921
0
LINE
8
BLACK
6
CONTINUOUS
10
91.096240999999992
20
-121.0407879999999921
11
91.0826459999999969
21
-121.0543819999999897
0
LINE
8
BLACK
6
CONTINUOUS
10
91.0826459999999969
20
-121.0543819999999897
11
91.0691429999999968
21
-121.0680469999999929
0
LINE
8
BLACK
6
CONTINUOUS
10
91.0691429999999968
20
-121.0680469999999929
11
91.0688639999999907
21
-121.0681639999999959
0
LINE
8
BLACK
6
CONTINUOUS
10
91.0688639999999907
20
-121.0681639999999959
11
91.0686510000000027
21
-121.0683779999999956
0
LINE
8
BLACK
6
CONTINUOUS
10
91.0686510000000027
20
-121.0683779999999956
11
91.0509100000000018
21
-121.0757259999999889
0
LINE
8
BLACK
6
CONTINUOUS
10
91.0509100000000018
20
-121.0757259999999889
11
91.0331839999999914
21
-121.0831929999999943
0
LINE
8
BLACK
6
CONTINUOUS
10
91.0331839999999914
20
-121.0831929999999943
11
91.0328799999999916
21
-121.0831949999999892
0
LINE
8
BLACK
6
CONTINUOUS
10
91.0328799999999916
20
-121.0831949999999892
11
91.0326029999999946
21
-121.0833099999999973
0
LINE
8
BLACK
6
CONTINUOUS
10
91.0326029999999946
20
-121.0833099999999973
11
91.015704999999997
21
-121.0833099999999973
0
LINE
8
BLACK
6
CONTINUOUS
10
91.015704999999997
20
-121.0833099999999973
11
88.6200979999999987
21
-121.0993449999999996
0
LINE
8
BLACK
6
CONTINUOUS
10
88.6200979999999987
20
-121.0993449999999996
11
88.6219880000000018
21
-128.2858119999999928
0
LINE
8
BLACK
6
CONTINUOUS
10
88.6219880000000018
20
-128.2858119999999928
11
88.6201239999999899
21
-128.3047399999999811
0
LINE
8
BLACK
6
CONTINUOUS
10
88.6201239999999899
20
-128.3047399999999811
11
88.6387390000000011
21
-135.1518659999999841
0
LINE
8
BLACK
6
CONTINUOUS
10
88.6387390000000011
20
-135.1518659999999841
11
92.75
21
-135.1500000000000057
0
LINE
8
BLACK
6
CONTINUOUS
10
92.75
20
-135.1500000000000057
11
92.7695089999999993
21
-135.1519209999999873
0
LINE
8
BLACK
6
CONTINUOUS
10
92.7695089999999993
20
-135.1519209999999873
11
92.8055569999999932
21
-135.1668530000000032
0
LINE
8
BLACK
6
CONTINUOUS
10
92.8055569999999932
20
-135.1668530000000032
11
92.8331469999999968
21
-135.1944430000000068
0
LINE
8
BLACK
6
CONTINUOUS
10
92.8331469999999968
20
-135.1944430000000068
11
92.8480789999999985
21
-135.2304910000000007
0
LINE
8
BLACK
6
CONTINUOUS
10
92.8480789999999985
20
-135.2304910000000007
11
92.8499419999999986
21
-138.4019109999999841
0
LINE
8
BLACK
6
CONTINUOUS
10
92.8499419999999986
20
-138.4019109999999841
11
116.401849999999996
21
-138.400006999999988
0
LINE
8
BLACK
6
CONTINUOUS
10
116.401849999999996
20
-138.400006999999988
11
116.3999999999999915
21
-135.25
0
LINE
8
BLACK
6
CONTINUOUS
10
116.3999999999999915
20
-135.25
11
116.4019210000000015
21
-135.2304910000000007
0
LINE
8
BLACK
6
CONTINUOUS
10
116.4019210000000015
20
-135.2304910000000007
11
116.416852999999989
21
-135.1944430000000068
0
LINE
8
BLACK
6
CONTINUOUS
10
116.416852999999989
20
-135.1944430000000068
11
116.4444429999999926
21
-135.1668530000000032
0
LINE
8
BLACK
6
CONTINUOUS
10
116.4444429999999926
20
-135.1668530000000032
11
116.4804910000000007
21
-135.1519209999999873
0
LINE
8
BLACK
6
CONTINUOUS
10
116.4804910000000007
20
-135.1519209999999873
11
120.3238979999999998
21
-135.1500470000000007
0
LINE
8
BLACK
6
CONTINUOUS
10
120.3238979999999998
20
-135.1500470000000007
11
120.3219959999999986
21
-112.5982269999999943
0
LINE
8
BLACK
6
CONTINUOUS
10
120.3219959999999986
20
-112.5982269999999943
11
116.2384819999999905
21
-112.6000939999999986
0
LINE
8
BLACK
6
CONTINUOUS
10
116.2384819999999905
20
-112.6000939999999986
11
116.2189729999999912
21
-112.5981729999999885
0
LINE
8
BLACK
6
CONTINUOUS
10
116.2189729999999912
20
-112.5981729999999885
11
116.1829249999999973
21
-112.583241000000001
0
LINE
8
BLACK
6
CONTINUOUS
10
116.1829249999999973
20
-112.583241000000001
11
116.1553349999999938
21
-112.5556509999999975
0
LINE
8
BLACK
6
CONTINUOUS
10
116.1553349999999938
20
-112.5556509999999975
11
116.1404029999999921
21
-112.5196029999999894
0
LINE
8
BLACK
6
CONTINUOUS
10
116.1404029999999921
20
-112.5196029999999894
11
116.1385980000000018
21
-110.9954639999999984
0
LINE
8
BLACK
6
CONTINUOUS
10
116.1385980000000018
20
-110.9954639999999984
11
114.4853789999999947
21
-110.997255999999993
0
LINE
8
BLACK
6
CONTINUOUS
10
114.4853789999999947
20
-110.997255999999993
11
114.4658699999999953
21
-110.9953349999999972
0
LINE
8
BLACK
6
CONTINUOUS
10
114.4658699999999953
20
-110.9953349999999972
11
114.4298220000000015
21
-110.9804029999999955
0
LINE
8
BLACK
6
CONTINUOUS
10
114.4298220000000015
20
-110.9804029999999955
11
114.4022319999999979
21
-110.9528129999999919
0
LINE
8
BLACK
6
CONTINUOUS
10
114.4022319999999979
20
-110.9528129999999919
11
114.3872999999999962
21
-110.9167649999999981
0
LINE
8
BLACK
6
CONTINUOUS
10
114.3872999999999962
20
-110.9167649999999981
11
114.3854559999999907
21
-108.5910899999999941
0
LINE
8
BLACK
6
CONTINUOUS
10
114.3854559999999907
20
-108.5910899999999941
11
94.5981730000000027
21
-108.5929900000000004
0
LINE
8
BLACK
6
CONTINUOUS
10
72.7360599999999948
20
-125.2894019999999955
11
72.9774259999999941
21
-125.3638529999999918
0
LINE
8
BLACK
6
CONTINUOUS
10
72.9774259999999941
20
-125.3638529999999918
11
73.2049999999999983
21
-125.4734469999999931
0
LINE
8
BLACK
6
CONTINUOUS
10
73.2049999999999983
20
-125.4734469999999931
11
73.4136979999999966
21
-125.6157350000000008
0
LINE
8
BLACK
6
CONTINUOUS
10
73.4136979999999966
20
-125.6157350000000008
11
73.5988579999999928
21
-125.7875379999999979
0
LINE
8
BLACK
6
CONTINUOUS
10
73.5988579999999928
20
-125.7875379999999979
11
73.7563439999999986
21
-125.9850189999999941
0
LINE
8
BLACK
6
CONTINUOUS
10
73.7563439999999986
20
-125.9850189999999941
11
73.8826370000000026
21
-126.2037659999999875
0
LINE
8
BLACK
6
CONTINUOUS
10
73.8826370000000026
20
-126.2037659999999875
11
73.9749180000000024
21
-126.4388939999999906
0
LINE
8
BLACK
6
CONTINUOUS
10
73.9749180000000024
20
-126.4388939999999906
11
74.0311239999999913
21
-126.6851489999999956
0
LINE
8
BLACK
6
CONTINUOUS
10
74.0311239999999913
20
-126.6851489999999956
11
74.0499999999999972
21
-126.9370299999999929
0
LINE
8
BLACK
6
CONTINUOUS
10
74.0499999999999972
20
-126.9370299999999929
11
74.0311239999999913
21
-127.1889109999999903
0
LINE
8
BLACK
6
CONTINUOUS
10
74.0311239999999913
20
-127.1889109999999903
11
73.9749180000000024
21
-127.4351659999999953
0
LINE
8
BLACK
6
CONTINUOUS
10
73.9749180000000024
20
-127.4351659999999953
11
73.8826370000000026
21
-127.6702939999999984
0
LINE
8
BLACK
6
CONTINUOUS
10
73.8826370000000026
20
-127.6702939999999984
11
73.7563439999999986
21
-127.8890409999999918
0
LINE
8
BLACK
6
CONTINUOUS
10
73.7563439999999986
20
-127.8890409999999918
11
73.5988579999999928
21
-128.0865220000000022
0
LINE
8
BLACK
6
CONTINUOUS
10
73.5988579999999928
20
-128.0865220000000022
11
73.4136979999999966
21
-128.258324999999985
0
LINE
8
BLACK
6
CONTINUOUS
10
73.4136979999999966
20
-128.258324999999985
11
73.2049999999999983
21
-128.4006129999999928
0
LINE
8
BLACK
6
CONTINUOUS
10
73.2049999999999983
20
-128.4006129999999928
11
72.9774259999999941
21
-128.5102070000000083
0
LINE
8
BLACK
6
CONTINUOUS
10
72.9774259999999941
20
-128.5102070000000083
11
72.7360599999999948
21
-128.5846579999999904
0
LINE
8
BLACK
6
CONTINUOUS
10
72.7360599999999948
20
-128.5846579999999904
11
72.4862940000000009
21
-128.6223039999999855
0
LINE
8
BLACK
6
CONTINUOUS
10
72.4862940000000009
20
-128.6223039999999855
11
72.233705999999998
21
-128.6223039999999855
0
LINE
8
BLACK
6
CONTINUOUS
10
72.233705999999998
20
-128.6223039999999855
11
71.9839399999999898
21
-128.5846579999999904
0
LINE
8
BLACK
6
CONTINUOUS
10
71.9839399999999898
20
-128.5846579999999904
11
71.7425739999999905
21
-128.5102070000000083
0
LINE
8
BLACK
6
CONTINUOUS
10
71.7425739999999905
20
-128.5102070000000083
11
71.5150000000000006
21
-128.4006129999999928
0
LINE
8
BLACK
6
CONTINUOUS
10
71.5150000000000006
20
-128.4006129999999928
11
71.3063020000000023
21
-128.258324999999985
0
LINE
8
BLACK
6
CONTINUOUS
10
71.3063020000000023
20
-128.258324999999985
11
71.1211419999999919
21
-128.0865220000000022
0
LINE
8
BLACK
6
CONTINUOUS
10
71.1211419999999919
20
-128.0865220000000022
11
70.9636560000000003
21
-127.8890409999999918
0
LINE
8
BLACK
6
CONTINUOUS
10
70.9636560000000003
20
-127.8890409999999918
11
70.8373629999999963
21
-127.6702939999999984
0
LINE
8
BLACK
6
CONTINUOUS
10
70.8373629999999963
20
-127.6702939999999984
11
70.7450819999999965
21
-127.4351659999999953
0
LINE
8
BLACK
6
CONTINUOUS
10
70.7450819999999965
20
-127.4351659999999953
11
70.6888759999999934
21
-127.1889109999999903
0
LINE
8
BLACK
6
CONTINUOUS
10
70.6888759999999934
20
-127.1889109999999903
11
70.6700000000000017
21
-126.9370299999999929
0
LINE
8
BLACK
6
CONTINUOUS
10
70.6700000000000017
20
-126.9370299999999929
11
70.6888759999999934
21
-126.6851489999999956
0
LINE
8
BLACK
6
CONTINUOUS
10
70.6888759999999934
20
-126.6851489999999956
11
70.7450819999999965
21
-126.4388939999999906
0
LINE
8
BLACK
6
CONTINUOUS
10
70.7450819999999965
20
-126.4388939999999906
11
70.8373629999999963
21
-126.2037659999999875
0
LINE
8
BLACK
6
CONTINUOUS
10
70.8373629999999963
20
-126.2037659999999875
11
70.9636560000000003
21
-125.9850189999999941
0
LINE
8
BLACK
6
CONTINUOUS
10
70.9636560000000003
20
-125.9850189999999941
11
71.1211419999999919
21
-125.7875379999999979
0
LINE
8
BLACK
6
CONTINUOUS
10
71.1211419999999919
20
-125.7875379999999979
11
71.3063020000000023
21
-125.6157350000000008
0
LINE
8
BLACK
6
CONTINUOUS
10
71.3063020000000023
20
-125.6157350000000008
11
71.5150000000000006
21
-125.4734469999999931
0
LINE
8
BLACK
6
CONTINUOUS
10
71.5150000000000006
20
-125.4734469999999931
11
71.7425739999999905
21
-125.3638529999999918
0
LINE
8
BLACK
6
CONTINUOUS
10
71.7425739999999905
20
-125.3638529999999918
11
71.9839399999999898
21
-125.2894019999999955
0
LINE
8
BLACK
6
CONTINUOUS
10
71.9839399999999898
20
-125.2894019999999955
11
72.233705999999998
21
-125.2517560000000003
0
LINE
8
BLACK
6
CONTINUOUS
10
72.233705999999998
20
-125.2517560000000003
11
72.4862940000000009
21
-125.2517560000000003
0
LINE
8
BLACK
6
CONTINUOUS
10
72.4862940000000009
20
-125.2517560000000003
11
72.7360599999999948
21
-125.2894019999999955
0
LINE
8
BLACK
6
CONTINUOUS
10
70.8639790000000005
20
-127.1739759999999961
11
70.9194639999999907
21
-127.4050879999999921
0
LINE
8
BLACK
6
CONTINUOUS
10
70.9194639999999907
20
-127.4050879999999921
11
71.0104199999999963
21
-127.6246749999999963
0
LINE
8
BLACK
6
CONTINUOUS
10
71.0104199999999963
20
-127.6246749999999963
11
71.1346070000000026
21
-127.8273299999999892
0
LINE
8
BLACK
6
CONTINUOUS
10
71.1346070000000026
20
-127.8273299999999892
11
71.2889669999999995
21
-128.0080629999999928
0
LINE
8
BLACK
6
CONTINUOUS
10
71.2889669999999995
20
-128.0080629999999928
11
71.4697000000000031
21
-128.1624229999999898
0
LINE
8
BLACK
6
CONTINUOUS
10
71.4697000000000031
20
-128.1624229999999898
11
71.672354999999996
21
-128.286609999999996
0
LINE
8
BLACK
6
CONTINUOUS
10
71.672354999999996
20
-128.286609999999996
11
71.8919420000000002
21
-128.3775660000000016
0
LINE
8
BLACK
6
CONTINUOUS
10
71.8919420000000002
20
-128.3775660000000016
11
72.1230539999999962
21
-128.4330510000000061
0
LINE
8
BLACK
6
CONTINUOUS
10
72.1230539999999962
20
-128.4330510000000061
11
72.3599999999999994
21
-128.4516989999999907
0
LINE
8
BLACK
6
CONTINUOUS
10
72.3599999999999994
20
-128.4516989999999907
11
72.5969460000000026
21
-128.4330510000000061
0
LINE
8
BLACK
6
CONTINUOUS
10
72.5969460000000026
20
-128.4330510000000061
11
72.8280579999999986
21
-128.3775660000000016
0
LINE
8
BLACK
6
CONTINUOUS
10
72.8280579999999986
20
-128.3775660000000016
11
73.0476450000000028
21
-128.286609999999996
0
LINE
8
BLACK
6
CONTINUOUS
10
73.0476450000000028
20
-128.286609999999996
11
73.2502999999999957
21
-128.1624229999999898
0
LINE
8
BLACK
6
CONTINUOUS
10
73.2502999999999957
20
-128.1624229999999898
11
73.4310329999999993
21
-128.0080629999999928
0
LINE
8
BLACK
6
CONTINUOUS
10
73.4310329999999993
20
-128.0080629999999928
11
73.5853929999999963
21
-127.8273299999999892
0
LINE
8
BLACK
6
CONTINUOUS
10
73.5853929999999963
20
-127.8273299999999892
11
73.7095800000000025
21
-127.6246749999999963
0
LINE
8
BLACK
6
CONTINUOUS
10
73.7095800000000025
20
-127.6246749999999963
11
73.8005359999999939
21
-127.4050879999999921
0
LINE
8
BLACK
6
CONTINUOUS
10
73.8005359999999939
20
-127.4050879999999921
11
73.8560209999999984
21
-127.1739759999999961
0
LINE
8
BLACK
6
CONTINUOUS
10
73.8560209999999984
20
-127.1739759999999961
11
73.8746689999999973
21
-126.9370299999999929
0
LINE
8
BLACK
6
CONTINUOUS
10
73.8746689999999973
20
-126.9370299999999929
11
73.8560209999999984
21
-126.7000839999999897
0
LINE
8
BLACK
6
CONTINUOUS
10
73.8560209999999984
20
-126.7000839999999897
11
73.8005359999999939
21
-126.4689719999999937
0
LINE
8
BLACK
6
CONTINUOUS
10
73.8005359999999939
20
-126.4689719999999937
11
73.7095800000000025
21
-126.2493849999999895
0
LINE
8
BLACK
6
CONTINUOUS
10
73.7095800000000025
20
-126.2493849999999895
11
73.5853929999999963
21
-126.0467299999999966
0
LINE
8
BLACK
6
CONTINUOUS
10
73.5853929999999963
20
-126.0467299999999966
11
73.4310329999999993
21
-125.865996999999993
0
LINE
8
BLACK
6
CONTINUOUS
10
73.4310329999999993
20
-125.865996999999993
11
73.2502999999999957
21
-125.7116369999999961
0
LINE
8
BLACK
6
CONTINUOUS
10
73.2502999999999957
20
-125.7116369999999961
11
73.0476450000000028
21
-125.5874499999999898
0
LINE
8
BLACK
6
CONTINUOUS
10
73.0476450000000028
20
-125.5874499999999898
11
72.8280579999999986
21
-125.4964939999999984
0
LINE
8
BLACK
6
CONTINUOUS
10
72.8280579999999986
20
-125.4964939999999984
11
72.5969460000000026
21
-125.441008999999994
0
LINE
8
BLACK
6
CONTINUOUS
10
72.5969460000000026
20
-125.441008999999994
11
72.3599999999999994
21
-125.4223609999999951
0
LINE
8
BLACK
6
CONTINUOUS
10
72.3599999999999994
20
-125.4223609999999951
11
72.1230539999999962
21
-125.441008999999994
0
LINE
8
BLACK
6
CONTINUOUS
10
72.1230539999999962
20
-125.441008999999994
11
71.8919420000000002
21
-125.4964939999999984
0
LINE
8
BLACK
6
CONTINUOUS
10
71.8919420000000002
20
-125.4964939999999984
11
71.672354999999996
21
-125.5874499999999898
0
LINE
8
BLACK
6
CONTINUOUS
10
71.672354999999996
20
-125.5874499999999898
11
71.4697000000000031
21
-125.7116369999999961
0
LINE
8
BLACK
6
CONTINUOUS
10
71.4697000000000031
20
-125.7116369999999961
11
71.2889669999999995
21
-125.865996999999993
0
LINE
8
BLACK
6
CONTINUOUS
10
71.2889669999999995
20
-125.865996999999993
11
71.1346070000000026
21
-126.0467299999999966
0
LINE
8
BLACK
6
CONTINUOUS
10
71.1346070000000026
20
-126.0467299999999966
11
71.0104199999999963
21
-126.2493849999999895
0
LINE
8
BLACK
6
CONTINUOUS
10
71.0104199999999963
20
-126.2493849999999895
11
70.9194639999999907
21
-126.4689719999999937
0
LINE
8
BLACK
6
CONTINUOUS
10
70.9194639999999907
20
-126.4689719999999937
11
70.8639790000000005
21
-126.7000839999999897
0
LINE
8
BLACK
6
CONTINUOUS
10
70.8639790000000005
20
-126.7000839999999897
11
70.8453310000000016
21
-126.9370299999999929
0
LINE
8
BLACK
6
CONTINUOUS
10
70.8453310000000016
20
-126.9370299999999929
11
70.8639790000000005
21
-127.1739759999999961
0
LINE
8
BLACK
6
CONTINUOUS
10
136.9660599999999988
20
-125.2603419999999943
11
137.2074259999999981
21
-125.3347929999999906
0
LINE
8
BLACK
6
CONTINUOUS
10
137.2074259999999981
20
-125.3347929999999906
11
137.4350000000000023
21
-125.4443869999999919
0
LINE
8
BLACK
6
CONTINUOUS
10
137.4350000000000023
20
-125.4443869999999919
11
137.6436980000000005
21
-125.5866749999999996
0
LINE
8
BLACK
6
CONTINUOUS
10
137.6436980000000005
20
-125.5866749999999996
11
137.8288579999999968
21
-125.7584779999999967
0
LINE
8
BLACK
6
CONTINUOUS
10
137.8288579999999968
20
-125.7584779999999967
11
137.9863440000000026
21
-125.9559589999999929
0
LINE
8
BLACK
6
CONTINUOUS
10
137.9863440000000026
20
-125.9559589999999929
11
138.1126370000000065
21
-126.1747060000000005
0
LINE
8
BLACK
6
CONTINUOUS
10
138.1126370000000065
20
-126.1747060000000005
11
138.2049179999999922
21
-126.4098339999999894
0
LINE
8
BLACK
6
CONTINUOUS
10
138.2049179999999922
20
-126.4098339999999894
11
138.2611239999999952
21
-126.6560889999999944
0
LINE
8
BLACK
6
CONTINUOUS
10
138.2611239999999952
20
-126.6560889999999944
11
138.2800000000000011
21
-126.9079699999999917
0
LINE
8
BLACK
6
CONTINUOUS
10
138.2800000000000011
20
-126.9079699999999917
11
138.2611239999999952
21
-127.1598509999999891
0
LINE
8
BLACK
6
CONTINUOUS
10
138.2611239999999952
20
-127.1598509999999891
11
138.2049179999999922
21
-127.4061059999999941
0
LINE
8
BLACK
6
CONTINUOUS
10
138.2049179999999922
20
-127.4061059999999941
11
138.1126370000000065
21
-127.6412339999999972
0
LINE
8
BLACK
6
CONTINUOUS
10
138.1126370000000065
20
-127.6412339999999972
11
137.9863440000000026
21
-127.8599809999999906
0
LINE
8
BLACK
6
CONTINUOUS
10
137.9863440000000026
20
-127.8599809999999906
11
137.8288579999999968
21
-128.0574619999999868
0
LINE
8
BLACK
6
CONTINUOUS
10
137.8288579999999968
20
-128.0574619999999868
11
137.6436980000000005
21
-128.2292649999999981
0
LINE
8
BLACK
6
CONTINUOUS
10
137.6436980000000005
20
-128.2292649999999981
11
137.4350000000000023
21
-128.3715530000000058
0
LINE
8
BLACK
6
CONTINUOUS
10
137.4350000000000023
20
-128.3715530000000058
11
137.2074259999999981
21
-128.4811469999999929
0
LINE
8
BLACK
6
CONTINUOUS
10
137.2074259999999981
20
-128.4811469999999929
11
136.9660599999999988
21
-128.5555980000000034
0
LINE
8
BLACK
6
CONTINUOUS
10
136.9660599999999988
20
-128.5555980000000034
11
136.7162940000000049
21
-128.5932439999999986
0
LINE
8
BLACK
6
CONTINUOUS
10
136.7162940000000049
20
-128.5932439999999986
11
136.4637060000000019
21
-128.5932439999999986
0
LINE
8
BLACK
6
CONTINUOUS
10
136.4637060000000019
20
-128.5932439999999986
11
136.213940000000008
21
-128.5555980000000034
0
LINE
8
BLACK
6
CONTINUOUS
10
136.213940000000008
20
-128.5555980000000034
11
135.9725739999999803
21
-128.4811469999999929
0
LINE
8
BLACK
6
CONTINUOUS
10
135.9725739999999803
20
-128.4811469999999929
11
135.7450000000000045
21
-128.3715530000000058
0
LINE
8
BLACK
6
CONTINUOUS
10
135.7450000000000045
20
-128.3715530000000058
11
135.5363020000000063
21
-128.2292649999999981
0
LINE
8
BLACK
6
CONTINUOUS
10
135.5363020000000063
20
-128.2292649999999981
11
135.3511419999999816
21
-128.0574619999999868
0
LINE
8
BLACK
6
CONTINUOUS
10
135.3511419999999816
20
-128.0574619999999868
11
135.1936560000000043
21
-127.8599809999999906
0
LINE
8
BLACK
6
CONTINUOUS
10
135.1936560000000043
20
-127.8599809999999906
11
135.0673630000000003
21
-127.6412339999999972
0
LINE
8
BLACK
6
CONTINUOUS
10
135.0673630000000003
20
-127.6412339999999972
11
134.9750819999999862
21
-127.4061059999999941
0
LINE
8
BLACK
6
CONTINUOUS
10
134.9750819999999862
20
-127.4061059999999941
11
134.9188759999999832
21
-127.1598509999999891
0
LINE
8
BLACK
6
CONTINUOUS
10
134.9188759999999832
20
-127.1598509999999891
11
134.9000000000000057
21
-126.9079699999999917
0
LINE
8
BLACK
6
CONTINUOUS
10
134.9000000000000057
20
-126.9079699999999917
11
134.9188759999999832
21
-126.6560889999999944
0
LINE
8
BLACK
6
CONTINUOUS
10
134.9188759999999832
20
-126.6560889999999944
11
134.9750819999999862
21
-126.4098339999999894
0
LINE
8
BLACK
6
CONTINUOUS
10
134.9750819999999862
20
-126.4098339999999894
11
135.0673630000000003
21
-126.1747060000000005
0
LINE
8
BLACK
6
CONTINUOUS
10
135.0673630000000003
20
-126.1747060000000005
11
135.1936560000000043
21
-125.9559589999999929
0
LINE
8
BLACK
6
CONTINUOUS
10
135.1936560000000043
20
-125.9559589999999929
11
135.3511419999999816
21
-125.7584779999999967
0
LINE
8
BLACK
6
CONTINUOUS
10
135.3511419999999816
20
-125.7584779999999967
11
135.5363020000000063
21
-125.5866749999999996
0
LINE
8
BLACK
6
CONTINUOUS
10
135.5363020000000063
20
-125.5866749999999996
11
135.7450000000000045
21
-125.4443869999999919
0
LINE
8
BLACK
6
CONTINUOUS
10
135.7450000000000045
20
-125.4443869999999919
11
135.9725739999999803
21
-125.3347929999999906
0
LINE
8
BLACK
6
CONTINUOUS
10
135.9725739999999803
20
-125.3347929999999906
11
136.213940000000008
21
-125.2603419999999943
0
LINE
8
BLACK
6
CONTINUOUS
10
136.213940000000008
20
-125.2603419999999943
11
136.4637060000000019
21
-125.2226959999999991
0
LINE
8
BLACK
6
CONTINUOUS
10
136.4637060000000019
20
-125.2226959999999991
11
136.7162940000000049
21
-125.2226959999999991
0
LINE
8
BLACK
6
CONTINUOUS
10
136.7162940000000049
20
-125.2226959999999991
11
136.9660599999999988
21
-125.2603419999999943
0
LINE
8
BLACK
6
CONTINUOUS
10
135.0939789999999903
20
-127.1449159999999949
11
135.1494639999999947
21
-127.3760279999999909
0
LINE
8
BLACK
6
CONTINUOUS
10
135.1494639999999947
20
-127.3760279999999909
11
135.2404200000000003
21
-127.5956149999999951
0
LINE
8
BLACK
6
CONTINUOUS
10
135.2404200000000003
20
-127.5956149999999951
11
135.3646070000000066
21
-127.798269999999988
0
LINE
8
BLACK
6
CONTINUOUS
10
135.3646070000000066
20
-127.798269999999988
11
135.5189670000000035
21
-127.9790029999999916
0
LINE
8
BLACK
6
CONTINUOUS
10
135.5189670000000035
20
-127.9790029999999916
11
135.6997000000000071
21
-128.1333630000000028
0
LINE
8
BLACK
6
CONTINUOUS
10
135.6997000000000071
20
-128.1333630000000028
11
135.902355
21
-128.2575499999999806
0
LINE
8
BLACK
6
CONTINUOUS
10
135.902355
20
-128.2575499999999806
11
136.12194199999999
21
-128.3485059999999862
0
LINE
8
BLACK
6
CONTINUOUS
10
136.12194199999999
20
-128.3485059999999862
11
136.353053999999986
21
-128.4039909999999907
0
LINE
8
BLACK
6
CONTINUOUS
10
136.353053999999986
20
-128.4039909999999907
11
136.5900000000000034
21
-128.4226390000000038
0
LINE
8
BLACK
6
CONTINUOUS
10
136.5900000000000034
20
-128.4226390000000038
11
136.8269459999999924
21
-128.4039909999999907
0
LINE
8
BLACK
6
CONTINUOUS
10
136.8269459999999924
20
-128.4039909999999907
11
137.0580579999999884
21
-128.3485059999999862
0
LINE
8
BLACK
6
CONTINUOUS
10
137.0580579999999884
20
-128.3485059999999862
11
137.2776450000000068
21
-128.2575499999999806
0
LINE
8
BLACK
6
CONTINUOUS
10
137.2776450000000068
20
-128.2575499999999806
11
137.4802999999999997
21
-128.1333630000000028
0
LINE
8
BLACK
6
CONTINUOUS
10
137.4802999999999997
20
-128.1333630000000028
11
137.6610330000000033
21
-127.9790029999999916
0
LINE
8
BLACK
6
CONTINUOUS
10
137.6610330000000033
20
-127.9790029999999916
11
137.8153930000000003
21
-127.798269999999988
0
LINE
8
BLACK
6
CONTINUOUS
10
137.8153930000000003
20
-127.798269999999988
11
137.9395800000000065
21
-127.5956149999999951
0
LINE
8
BLACK
6
CONTINUOUS
10
137.9395800000000065
20
-127.5956149999999951
11
138.0305359999999837
21
-127.3760279999999909
0
LINE
8
BLACK
6
CONTINUOUS
10
138.0305359999999837
20
-127.3760279999999909
11
138.0860209999999881
21
-127.1449159999999949
0
LINE
8
BLACK
6
CONTINUOUS
10
138.0860209999999881
20
-127.1449159999999949
11
138.1046690000000012
21
-126.9079699999999917
0
LINE
8
BLACK
6
CONTINUOUS
10
138.1046690000000012
20
-126.9079699999999917
11
138.0860209999999881
21
-126.6710239999999885
0
LINE
8
BLACK
6
CONTINUOUS
10
138.0860209999999881
20
-126.6710239999999885
11
138.0305359999999837
21
-126.4399119999999925
0
LINE
8
BLACK
6
CONTINUOUS
10
138.0305359999999837
20
-126.4399119999999925
11
137.9395800000000065
21
-126.2203249999999883
0
LINE
8
BLACK
6
CONTINUOUS
10
137.9395800000000065
20
-126.2203249999999883
11
137.8153930000000003
21
-126.0176699999999954
0
LINE
8
BLACK
6
CONTINUOUS
10
137.8153930000000003
20
-126.0176699999999954
11
137.6610330000000033
21
-125.8369369999999918
0
LINE
8
BLACK
6
CONTINUOUS
10
137.6610330000000033
20
-125.8369369999999918
11
137.4802999999999997
21
-125.6825769999999949
0
LINE
8
BLACK
6
CONTINUOUS
10
137.4802999999999997
20
-125.6825769999999949
11
137.2776450000000068
21
-125.5583899999999886
0
LINE
8
BLACK
6
CONTINUOUS
10
137.2776450000000068
20
-125.5583899999999886
11
137.0580579999999884
21
-125.4674339999999972
0
LINE
8
BLACK
6
CONTINUOUS
10
137.0580579999999884
20
-125.4674339999999972
11
136.8269459999999924
21
-125.4119489999999928
0
LINE
8
BLACK
6
CONTINUOUS
10
136.8269459999999924
20
-125.4119489999999928
11
136.5900000000000034
21
-125.3933009999999939
0
LINE
8
BLACK
6
CONTINUOUS
10
136.5900000000000034
20
-125.3933009999999939
11
136.353053999999986
21
-125.4119489999999928
0
LINE
8
BLACK
6
CONTINUOUS
10
136.353053999999986
20
-125.4119489999999928
11
136.12194199999999
21
-125.4674339999999972
0
LINE
8
BLACK
6
CONTINUOUS
10
136.12194199999999
20
-125.4674339999999972
11
135.902355
21
-125.5583899999999886
0
LINE
8
BLACK
6
CONTINUOUS
10
135.902355
20
-125.5583899999999886
11
135.6997000000000071
21
-125.6825769999999949
0
LINE
8
BLACK
6
CONTINUOUS
10
135.6997000000000071
20
-125.6825769999999949
11
135.5189670000000035
21
-125.8369369999999918
0
LINE
8
BLACK
6
CONTINUOUS
10
135.5189670000000035
20
-125.8369369999999918
11
135.3646070000000066
21
-126.0176699999999954
0
LINE
8
BLACK
6
CONTINUOUS
10
135.3646070000000066
20
-126.0176699999999954
11
135.2404200000000003
21
-126.2203249999999883
0
LINE
8
BLACK
6
CONTINUOUS
10
135.2404200000000003
20
-126.2203249999999883
11
135.1494639999999947
21
-126.4399119999999925
0
LINE
8
BLACK
6
CONTINUOUS
10
135.1494639999999947
20
-126.4399119999999925
11
135.0939789999999903
21
-126.6710239999999885
0
LINE
8
BLACK
6
CONTINUOUS
10
135.0939789999999903
20
-126.6710239999999885
11
135.0753310000000056
21
-126.9079699999999917
0
LINE
8
BLACK
6
CONTINUOUS
10
135.0753310000000056
20
-126.9079699999999917
11
135.0939789999999903
21
-127.1449159999999949
0
LINE
8
BLACK
6
CONTINUOUS
10
141.5195089999999993
20
-104.4019210000000015
11
141.5555569999999932
21
-104.416852999999989
0
LINE
8
BLACK
6
CONTINUOUS
10
141.5555569999999932
20
-104.416852999999989
11
141.5831469999999968
21
-104.4444429999999926
0
LINE
8
BLACK
6
CONTINUOUS
10
141.5831469999999968
20
-104.4444429999999926
11
141.5980789999999843
21
-104.4804910000000007
0
LINE
8
BLACK
6
CONTINUOUS
10
141.5980789999999843
20
-104.4804910000000007
11
141.5999999999999943
21
-140.5
0
LINE
8
BLACK
6
CONTINUOUS
10
141.5999999999999943
20
-140.5
11
141.5980789999999843
21
-140.5195089999999993
0
LINE
8
BLACK
6
CONTINUOUS
10
141.5980789999999843
20
-140.5195089999999993
11
141.5831469999999968
21
-140.5555569999999932
0
LINE
8
BLACK
6
CONTINUOUS
10
141.5831469999999968
20
-140.5555569999999932
11
141.5555569999999932
21
-140.5831469999999968
0
LINE
8
BLACK
6
CONTINUOUS
10
141.5555569999999932
20
-140.5831469999999968
11
141.5195089999999993
21
-140.5980789999999843
0
LINE
8
BLACK
6
CONTINUOUS
10
141.5195089999999993
20
-140.5980789999999843
11
133.7701099999999883
21
-140.5999750000000006
0
LINE
8
BLACK
6
CONTINUOUS
10
133.7701099999999883
20
-140.5999750000000006
11
133.7719879999999932
21
-145.75
0
LINE
8
BLACK
6
CONTINUOUS
10
133.7719879999999932
20
-145.75
11
133.7700669999999832
21
-145.7695089999999993
0
LINE
8
BLACK
6
CONTINUOUS
10
133.7700669999999832
20
-145.7695089999999993
11
133.7551349999999957
21
-145.8055569999999932
0
LINE
8
BLACK
6
CONTINUOUS
10
133.7551349999999957
20
-145.8055569999999932
11
133.7275449999999921
21
-145.8331469999999968
0
LINE
8
BLACK
6
CONTINUOUS
10
133.7275449999999921
20
-145.8331469999999968
11
133.6914969999999983
21
-145.8480789999999843
0
LINE
8
BLACK
6
CONTINUOUS
10
133.6914969999999983
20
-145.8480789999999843
11
75.2719879999999932
21
-145.8499999999999943
0
LINE
8
BLACK
6
CONTINUOUS
10
75.2719879999999932
20
-145.8499999999999943
11
75.2524789999999939
21
-145.8480789999999843
0
LINE
8
BLACK
6
CONTINUOUS
10
75.2524789999999939
20
-145.8480789999999843
11
75.216431
21
-145.8331469999999968
0
LINE
8
BLACK
6
CONTINUOUS
10
75.216431
20
-145.8331469999999968
11
75.1888409999999965
21
-145.8055569999999932
0
LINE
8
BLACK
6
CONTINUOUS
10
75.1888409999999965
20
-145.8055569999999932
11
75.1739089999999948
21
-145.7695089999999993
0
LINE
8
BLACK
6
CONTINUOUS
10
75.1739089999999948
20
-145.7695089999999993
11
75.1720229999999958
21
-140.5981079999999963
0
LINE
8
BLACK
6
CONTINUOUS
10
75.1720229999999958
20
-140.5981079999999963
11
67.5
21
-140.5999999999999943
0
LINE
8
BLACK
6
CONTINUOUS
10
67.5
20
-140.5999999999999943
11
67.4804910000000007
21
-140.5980789999999843
0
LINE
8
BLACK
6
CONTINUOUS
10
67.4804910000000007
20
-140.5980789999999843
11
67.4444429999999926
21
-140.5831469999999968
0
LINE
8
BLACK
6
CONTINUOUS
10
67.4444429999999926
20
-140.5831469999999968
11
67.4168530000000032
21
-140.5555569999999932
0
LINE
8
BLACK
6
CONTINUOUS
10
67.4168530000000032
20
-140.5555569999999932
11
67.4019210000000015
21
-140.5195089999999993
0
LINE
8
BLACK
6
CONTINUOUS
10
67.4019210000000015
20
-140.5195089999999993
11
67.3999999999999915
21
-104.5
0
LINE
8
BLACK
6
CONTINUOUS
10
67.3999999999999915
20
-104.5
11
67.4019210000000015
21
-104.4804910000000007
0
LINE
8
BLACK
6
CONTINUOUS
10
67.4019210000000015
20
-104.4804910000000007
11
67.4168530000000032
21
-104.4444429999999926
0
LINE
8
BLACK
6
CONTINUOUS
10
67.4168530000000032
20
-104.4444429999999926
11
67.4444429999999926
21
-104.416852999999989
0
LINE
8
BLACK
6
CONTINUOUS
10
67.4444429999999926
20
-104.416852999999989
11
67.4804910000000007
21
-104.4019210000000015
0
LINE
8
BLACK
6
CONTINUOUS
10
67.4804910000000007
20
-104.4019210000000015
11
141.5
21
-104.3999999999999915
0
LINE
8
BLACK
6
CONTINUOUS
10
141.5
20
-104.3999999999999915
11
141.5195089999999993
21
-104.4019210000000015
0
LINE
8
BLACK
6
CONTINUOUS
10
67.5980849999999975
20
-104.5999970000000019
11
67.5999939999999953
21
-140.4018910000000062
0
LINE
8
BLACK
6
CONTINUOUS
10
67.5999939999999953
20
-140.4018910000000062
11
75.2719879999999932
21
-140.4000000000000057
0
LINE
8
BLACK
6
CONTINUOUS
10
75.2719879999999932
20
-140.4000000000000057
11
75.2914969999999926
21
-140.4019209999999873
0
LINE
8
BLACK
6
CONTINUOUS
10
75.2914969999999926
20
-140.4019209999999873
11
75.3275450000000006
21
-140.4168530000000032
0
LINE
8
BLACK
6
CONTINUOUS
10
75.3275450000000006
20
-140.4168530000000032
11
75.35513499999999
21
-140.4444430000000068
0
LINE
8
BLACK
6
CONTINUOUS
10
75.35513499999999
20
-140.4444430000000068
11
75.3700669999999917
21
-140.4804910000000007
0
LINE
8
BLACK
6
CONTINUOUS
10
75.3700669999999917
20
-140.4804910000000007
11
75.3719519999999932
21
-145.6519169999999974
0
LINE
8
BLACK
6
CONTINUOUS
10
75.3719519999999932
20
-145.6519169999999974
11
133.5738649999999836
21
-145.6500029999999981
0
LINE
8
BLACK
6
CONTINUOUS
10
133.5738649999999836
20
-145.6500029999999981
11
133.5719880000000046
21
-140.5
0
LINE
8
BLACK
6
CONTINUOUS
10
133.5719880000000046
20
-140.5
11
133.5739089999999862
21
-140.4804910000000007
0
LINE
8
BLACK
6
CONTINUOUS
10
133.5739089999999862
20
-140.4804910000000007
11
133.5888410000000022
21
-140.4444430000000068
0
LINE
8
BLACK
6
CONTINUOUS
10
133.5888410000000022
20
-140.4444430000000068
11
133.6164310000000057
21
-140.4168530000000032
0
LINE
8
BLACK
6
CONTINUOUS
10
133.6164310000000057
20
-140.4168530000000032
11
133.6524789999999996
21
-140.4019209999999873
0
LINE
8
BLACK
6
CONTINUOUS
10
133.6524789999999996
20
-140.4019209999999873
11
141.401914000000005
21
-140.4000240000000019
0
LINE
8
BLACK
6
CONTINUOUS
10
141.401914000000005
20
-140.4000240000000019
11
141.4000049999999931
21
-104.5980819999999909
0
LINE
8
BLACK
6
CONTINUOUS
10
141.4000049999999931
20
-104.5980819999999909
11
67.5980849999999975
21
-104.5999970000000019
  0
ENDSEC
  0
EOF
